<svg width="14" height="14" viewBox="0 0 14 14" fill="none" xmlns="http://www.w3.org/2000/svg">
<path fill-rule="evenodd" clip-rule="evenodd" d="M5.39368 0C8.37252 0 10.7874 2.41483 10.7874 5.39368C10.7874 6.94385 10.1334 8.34128 9.08631 9.32514L13.1591 13.5L12.4857 14L8.4371 9.84731C7.57085 10.4404 6.52278 10.7874 5.39368 10.7874C2.41483 10.7874 0 8.37252 0 5.39368C0 2.41483 2.41483 0 5.39368 0ZM5.39368 9.95756C7.91424 9.95756 9.95756 7.91424 9.95756 5.39368C9.95756 2.87311 7.91424 0.829796 5.39368 0.829796C2.87311 0.829796 0.829796 2.87311 0.829796 5.39368C0.829796 7.91424 2.87311 9.95756 5.39368 9.95756Z" fill="black"/>
</svg>
